<?xml version="1.0" encoding="UTF-8" standalone="no"?>
<!-- Created with Inkscape (http://www.inkscape.org/) -->

<svg
   xmlns:dc="http://purl.org/dc/elements/1.1/"
   xmlns:cc="http://creativecommons.org/ns#"
   xmlns:rdf="http://www.w3.org/1999/02/22-rdf-syntax-ns#"
   xmlns:svg="http://www.w3.org/2000/svg"
   xmlns="http://www.w3.org/2000/svg"
   xmlns:sodipodi="http://sodipodi.sourceforge.net/DTD/sodipodi-0.dtd"
   xmlns:inkscape="http://www.inkscape.org/namespaces/inkscape"
   width="11in"
   height="8.5in"
   viewBox="0 0 279.4 215.9"
   version="1.1"
   id="svg8"
   sodipodi:docname="Ableton Push Grid Plain.svg"
   inkscape:version="0.92.4 (5da689c313, 2019-01-14)">
  <defs
     id="defs2" />
  <sodipodi:namedview
     id="base"
     pagecolor="#ffffff"
     bordercolor="#666666"
     borderopacity="1.0"
     inkscape:pageopacity="0.0"
     inkscape:pageshadow="2"
     inkscape:zoom="1"
     inkscape:cx="477.70312"
     inkscape:cy="411.15604"
     inkscape:document-units="mm"
     inkscape:current-layer="layer1"
     showgrid="false"
     showguides="false"
     units="in"
     inkscape:window-width="1920"
     inkscape:window-height="1017"
     inkscape:window-x="-8"
     inkscape:window-y="-8"
     inkscape:window-maximized="1">
    <inkscape:grid
       type="xygrid"
       id="grid3713"
       snapvisiblegridlinesonly="false" />
  </sodipodi:namedview>
  <metadata
     id="metadata5">
    <rdf:RDF>
      <cc:Work
         rdf:about="">
        <dc:format>image/svg+xml</dc:format>
        <dc:type
           rdf:resource="http://purl.org/dc/dcmitype/StillImage" />
        <dc:title></dc:title>
      </cc:Work>
    </rdf:RDF>
  </metadata>
  <g
     inkscape:label="Background"
     inkscape:groupmode="layer"
     id="layer1"
     transform="translate(0,-81.1)"
     style="display:inline" />
  <g
     inkscape:groupmode="layer"
     id="layer2"
     inkscape:label="Pads"
     style="display:inline">
    <rect
       style="fill:none;stroke:#000000;stroke-width:0.29727194;stroke-miterlimit:4;stroke-dasharray:none;stroke-opacity:1"
       id="rect826"
       width="23.702728"
       height="16.702728"
       x="29.848616"
       y="110.09865" />
    <rect
       y="110.09865"
       x="57.848621"
       height="16.702728"
       width="23.702728"
       id="rect855"
       style="fill:none;stroke:#000000;stroke-width:0.29727194;stroke-miterlimit:4;stroke-dasharray:none;stroke-opacity:1" />
    <rect
       y="110.09865"
       x="85.848625"
       height="16.702728"
       width="23.702728"
       id="rect857"
       style="fill:none;stroke:#000000;stroke-width:0.29727194;stroke-miterlimit:4;stroke-dasharray:none;stroke-opacity:1" />
    <rect
       y="131.09866"
       x="29.848616"
       height="16.702728"
       width="23.702728"
       id="rect861"
       style="fill:none;stroke:#000000;stroke-width:0.29727194;stroke-miterlimit:4;stroke-dasharray:none;stroke-opacity:1" />
    <rect
       style="fill:none;stroke:#000000;stroke-width:0.29727194;stroke-miterlimit:4;stroke-dasharray:none;stroke-opacity:1"
       id="rect863"
       width="23.702728"
       height="16.702728"
       x="57.848621"
       y="131.09866" />
    <rect
       style="fill:none;stroke:#000000;stroke-width:0.29727194;stroke-miterlimit:4;stroke-dasharray:none;stroke-opacity:1"
       id="rect865"
       width="23.702728"
       height="16.702728"
       x="85.848625"
       y="131.09866" />
    <rect
       y="131.09866"
       x="113.84863"
       height="16.702728"
       width="23.702728"
       id="rect867"
       style="fill:none;stroke:#000000;stroke-width:0.29727194;stroke-miterlimit:4;stroke-dasharray:none;stroke-opacity:1" />
    <rect
       y="152.09868"
       x="29.848616"
       height="16.702728"
       width="23.702728"
       id="rect869"
       style="fill:none;stroke:#000000;stroke-width:0.29727194;stroke-miterlimit:4;stroke-dasharray:none;stroke-opacity:1" />
    <rect
       style="fill:none;stroke:#000000;stroke-width:0.29727194;stroke-miterlimit:4;stroke-dasharray:none;stroke-opacity:1"
       id="rect871"
       width="23.702728"
       height="16.702728"
       x="57.848621"
       y="152.09868" />
    <rect
       style="fill:none;stroke:#000000;stroke-width:0.29727194;stroke-miterlimit:4;stroke-dasharray:none;stroke-opacity:1"
       id="rect873"
       width="23.702728"
       height="16.702728"
       x="85.848625"
       y="152.09868" />
    <rect
       y="152.09868"
       x="113.84863"
       height="16.702728"
       width="23.702728"
       id="rect875"
       style="fill:none;stroke:#000000;stroke-width:0.29727194;stroke-miterlimit:4;stroke-dasharray:none;stroke-opacity:1" />
    <rect
       style="fill:none;stroke:#000000;stroke-width:0.29727194;stroke-miterlimit:4;stroke-dasharray:none;stroke-opacity:1"
       id="rect877"
       width="23.702728"
       height="16.702728"
       x="29.848616"
       y="173.09869" />
    <rect
       y="173.09869"
       x="57.848621"
       height="16.702728"
       width="23.702728"
       id="rect879"
       style="fill:none;stroke:#000000;stroke-width:0.29727194;stroke-miterlimit:4;stroke-dasharray:none;stroke-opacity:1" />
    <rect
       y="173.09869"
       x="85.848625"
       height="16.702728"
       width="23.702728"
       id="rect881"
       style="fill:none;stroke:#000000;stroke-width:0.29727194;stroke-miterlimit:4;stroke-dasharray:none;stroke-opacity:1" />
    <rect
       style="fill:none;stroke:#000000;stroke-width:0.29727194;stroke-miterlimit:4;stroke-dasharray:none;stroke-opacity:1"
       id="rect883"
       width="23.702728"
       height="16.702728"
       x="113.84863"
       y="173.09869" />
    <path
       id="path889"
       style="fill:none;stroke:#000000;stroke-width:0.2958619;stroke-linecap:square;stroke-linejoin:miter;stroke-miterlimit:4;stroke-dasharray:none;stroke-opacity:1;paint-order:normal"
       d="m 135.61443,110.15912 c 1.87645,1.98996 1.87645,1.98996 1.87645,1.98996 m 0,14.65301 c 0,0 0,0 0,-14.65301 0,0 0,0 0,0 m -23.64296,-1.98996 c 21.77736,0 21.77736,0 21.77736,0 m -21.77736,16.64297 c 23.64296,0 23.64296,0 23.64296,0 m -23.64296,0 c 0,0 0,0 0,-16.64297 0,0 0,0 0,0"
       inkscape:connector-curvature="0" />
    <rect
       y="110.09865"
       x="-249.55139"
       height="16.702728"
       width="23.702728"
       id="rect856"
       style="fill:none;stroke:#000000;stroke-width:0.29727194;stroke-miterlimit:4;stroke-dasharray:none;stroke-opacity:1"
       transform="scale(-1,1)" />
    <rect
       style="fill:none;stroke:#000000;stroke-width:0.29727194;stroke-miterlimit:4;stroke-dasharray:none;stroke-opacity:1"
       id="rect858"
       width="23.702728"
       height="16.702728"
       x="-221.55139"
       y="110.09865"
       transform="scale(-1,1)" />
    <rect
       style="fill:none;stroke:#000000;stroke-width:0.29727194;stroke-miterlimit:4;stroke-dasharray:none;stroke-opacity:1"
       id="rect860"
       width="23.702728"
       height="16.702728"
       x="-193.55138"
       y="110.09865"
       transform="scale(-1,1)" />
    <rect
       style="fill:none;stroke:#000000;stroke-width:0.29727194;stroke-miterlimit:4;stroke-dasharray:none;stroke-opacity:1"
       id="rect862"
       width="23.702728"
       height="16.702728"
       x="-249.55139"
       y="131.09866"
       transform="scale(-1,1)" />
    <rect
       y="131.09866"
       x="-221.55139"
       height="16.702728"
       width="23.702728"
       id="rect864"
       style="fill:none;stroke:#000000;stroke-width:0.29727194;stroke-miterlimit:4;stroke-dasharray:none;stroke-opacity:1"
       transform="scale(-1,1)" />
    <rect
       y="131.09866"
       x="-193.55138"
       height="16.702728"
       width="23.702728"
       id="rect866"
       style="fill:none;stroke:#000000;stroke-width:0.29727194;stroke-miterlimit:4;stroke-dasharray:none;stroke-opacity:1"
       transform="scale(-1,1)" />
    <rect
       style="fill:none;stroke:#000000;stroke-width:0.29727194;stroke-miterlimit:4;stroke-dasharray:none;stroke-opacity:1"
       id="rect868"
       width="23.702728"
       height="16.702728"
       x="-165.55138"
       y="131.09866"
       transform="scale(-1,1)" />
    <rect
       style="fill:none;stroke:#000000;stroke-width:0.29727194;stroke-miterlimit:4;stroke-dasharray:none;stroke-opacity:1"
       id="rect870"
       width="23.702728"
       height="16.702728"
       x="-249.55139"
       y="152.09868"
       transform="scale(-1,1)" />
    <rect
       y="152.09868"
       x="-221.55139"
       height="16.702728"
       width="23.702728"
       id="rect872"
       style="fill:none;stroke:#000000;stroke-width:0.29727194;stroke-miterlimit:4;stroke-dasharray:none;stroke-opacity:1"
       transform="scale(-1,1)" />
    <rect
       y="152.09868"
       x="-193.55138"
       height="16.702728"
       width="23.702728"
       id="rect874"
       style="fill:none;stroke:#000000;stroke-width:0.29727194;stroke-miterlimit:4;stroke-dasharray:none;stroke-opacity:1"
       transform="scale(-1,1)" />
    <rect
       style="fill:none;stroke:#000000;stroke-width:0.29727194;stroke-miterlimit:4;stroke-dasharray:none;stroke-opacity:1"
       id="rect876"
       width="23.702728"
       height="16.702728"
       x="-165.55138"
       y="152.09868"
       transform="scale(-1,1)" />
    <rect
       y="173.09869"
       x="-249.55139"
       height="16.702728"
       width="23.702728"
       id="rect878"
       style="fill:none;stroke:#000000;stroke-width:0.29727194;stroke-miterlimit:4;stroke-dasharray:none;stroke-opacity:1"
       transform="scale(-1,1)" />
    <rect
       style="fill:none;stroke:#000000;stroke-width:0.29727194;stroke-miterlimit:4;stroke-dasharray:none;stroke-opacity:1"
       id="rect880"
       width="23.702728"
       height="16.702728"
       x="-221.55139"
       y="173.09869"
       transform="scale(-1,1)" />
    <rect
       style="fill:none;stroke:#000000;stroke-width:0.29727194;stroke-miterlimit:4;stroke-dasharray:none;stroke-opacity:1"
       id="rect882"
       width="23.702728"
       height="16.702728"
       x="-193.55138"
       y="173.09869"
       transform="scale(-1,1)" />
    <rect
       y="173.09869"
       x="-165.55138"
       height="16.702728"
       width="23.702728"
       id="rect884"
       style="fill:none;stroke:#000000;stroke-width:0.29727194;stroke-miterlimit:4;stroke-dasharray:none;stroke-opacity:1"
       transform="scale(-1,1)" />
    <path
       inkscape:connector-curvature="0"
       d="m 143.78556,110.15912 c -1.87645,1.98996 -1.87645,1.98996 -1.87645,1.98996 m 0,14.65301 c 0,0 0,0 0,-14.65301 0,0 0,0 0,0 m 23.64296,-1.98996 c -21.77736,0 -21.77736,0 -21.77736,0 m 21.77736,16.64297 c -23.64296,0 -23.64296,0 -23.64296,0 m 23.64296,0 c 0,0 0,0 0,-16.64297 0,0 0,0 0,0"
       style="fill:none;stroke:#000000;stroke-width:0.2958619;stroke-linecap:square;stroke-linejoin:miter;stroke-miterlimit:4;stroke-dasharray:none;stroke-opacity:1;paint-order:normal"
       id="path886" />
    <rect
       y="-105.80136"
       x="29.848616"
       height="16.702728"
       width="23.702728"
       id="rect926"
       style="fill:none;stroke:#000000;stroke-width:0.29727194;stroke-miterlimit:4;stroke-dasharray:none;stroke-opacity:1"
       transform="scale(1,-1)" />
    <rect
       style="fill:none;stroke:#000000;stroke-width:0.29727194;stroke-miterlimit:4;stroke-dasharray:none;stroke-opacity:1"
       id="rect928"
       width="23.702728"
       height="16.702728"
       x="57.848621"
       y="-105.80136"
       transform="scale(1,-1)" />
    <rect
       style="fill:none;stroke:#000000;stroke-width:0.29727194;stroke-miterlimit:4;stroke-dasharray:none;stroke-opacity:1"
       id="rect930"
       width="23.702728"
       height="16.702728"
       x="85.848625"
       y="-105.80136"
       transform="scale(1,-1)" />
    <rect
       style="fill:none;stroke:#000000;stroke-width:0.29727194;stroke-miterlimit:4;stroke-dasharray:none;stroke-opacity:1"
       id="rect932"
       width="23.702728"
       height="16.702728"
       x="29.848616"
       y="-84.801338"
       transform="scale(1,-1)" />
    <rect
       y="-84.801338"
       x="57.848621"
       height="16.702728"
       width="23.702728"
       id="rect934"
       style="fill:none;stroke:#000000;stroke-width:0.29727194;stroke-miterlimit:4;stroke-dasharray:none;stroke-opacity:1"
       transform="scale(1,-1)" />
    <rect
       y="-84.801338"
       x="85.848625"
       height="16.702728"
       width="23.702728"
       id="rect936"
       style="fill:none;stroke:#000000;stroke-width:0.29727194;stroke-miterlimit:4;stroke-dasharray:none;stroke-opacity:1"
       transform="scale(1,-1)" />
    <rect
       style="fill:none;stroke:#000000;stroke-width:0.29727194;stroke-miterlimit:4;stroke-dasharray:none;stroke-opacity:1"
       id="rect938"
       width="23.702728"
       height="16.702728"
       x="113.84863"
       y="-84.801338"
       transform="scale(1,-1)" />
    <rect
       style="fill:none;stroke:#000000;stroke-width:0.29727194;stroke-miterlimit:4;stroke-dasharray:none;stroke-opacity:1"
       id="rect940"
       width="23.702728"
       height="16.702728"
       x="29.848616"
       y="-63.801323"
       transform="scale(1,-1)" />
    <rect
       y="-63.801323"
       x="57.848621"
       height="16.702728"
       width="23.702728"
       id="rect942"
       style="fill:none;stroke:#000000;stroke-width:0.29727194;stroke-miterlimit:4;stroke-dasharray:none;stroke-opacity:1"
       transform="scale(1,-1)" />
    <rect
       y="-63.801323"
       x="85.848625"
       height="16.702728"
       width="23.702728"
       id="rect944"
       style="fill:none;stroke:#000000;stroke-width:0.29727194;stroke-miterlimit:4;stroke-dasharray:none;stroke-opacity:1"
       transform="scale(1,-1)" />
    <rect
       style="fill:none;stroke:#000000;stroke-width:0.29727194;stroke-miterlimit:4;stroke-dasharray:none;stroke-opacity:1"
       id="rect946"
       width="23.702728"
       height="16.702728"
       x="113.84863"
       y="-63.801323"
       transform="scale(1,-1)" />
    <rect
       y="-42.801308"
       x="29.848616"
       height="16.702728"
       width="23.702728"
       id="rect948"
       style="fill:none;stroke:#000000;stroke-width:0.29727194;stroke-miterlimit:4;stroke-dasharray:none;stroke-opacity:1"
       transform="scale(1,-1)" />
    <rect
       style="fill:none;stroke:#000000;stroke-width:0.29727194;stroke-miterlimit:4;stroke-dasharray:none;stroke-opacity:1"
       id="rect950"
       width="23.702728"
       height="16.702728"
       x="57.848621"
       y="-42.801308"
       transform="scale(1,-1)" />
    <rect
       style="fill:none;stroke:#000000;stroke-width:0.29727194;stroke-miterlimit:4;stroke-dasharray:none;stroke-opacity:1"
       id="rect952"
       width="23.702728"
       height="16.702728"
       x="85.848625"
       y="-42.801308"
       transform="scale(1,-1)" />
    <rect
       y="-42.801308"
       x="113.84863"
       height="16.702728"
       width="23.702728"
       id="rect954"
       style="fill:none;stroke:#000000;stroke-width:0.29727194;stroke-miterlimit:4;stroke-dasharray:none;stroke-opacity:1"
       transform="scale(1,-1)" />
    <path
       inkscape:connector-curvature="0"
       d="m 135.61443,105.74089 c 1.87645,-1.98996 1.87645,-1.98996 1.87645,-1.98996 m 0,-14.653014 c 0,0 0,0 0,14.653014 0,0 0,0 0,0 m -23.64296,1.98996 c 21.77736,0 21.77736,0 21.77736,0 M 113.84792,89.097916 c 23.64296,0 23.64296,0 23.64296,0 m -23.64296,0 c 0,0 0,0 0,16.642974 0,0 0,0 0,0"
       style="fill:none;stroke:#000000;stroke-width:0.2958619;stroke-linecap:square;stroke-linejoin:miter;stroke-miterlimit:4;stroke-dasharray:none;stroke-opacity:1;paint-order:normal"
       id="path956" />
    <rect
       style="fill:none;stroke:#000000;stroke-width:0.29727194;stroke-miterlimit:4;stroke-dasharray:none;stroke-opacity:1"
       id="rect960"
       width="23.702728"
       height="16.702728"
       x="-249.55139"
       y="-105.80136"
       transform="scale(-1)" />
    <rect
       y="-105.80136"
       x="-221.55139"
       height="16.702728"
       width="23.702728"
       id="rect962"
       style="fill:none;stroke:#000000;stroke-width:0.29727194;stroke-miterlimit:4;stroke-dasharray:none;stroke-opacity:1"
       transform="scale(-1)" />
    <rect
       y="-105.80136"
       x="-193.55138"
       height="16.702728"
       width="23.702728"
       id="rect964"
       style="fill:none;stroke:#000000;stroke-width:0.29727194;stroke-miterlimit:4;stroke-dasharray:none;stroke-opacity:1"
       transform="scale(-1)" />
    <rect
       y="-84.801338"
       x="-249.55139"
       height="16.702728"
       width="23.702728"
       id="rect966"
       style="fill:none;stroke:#000000;stroke-width:0.29727194;stroke-miterlimit:4;stroke-dasharray:none;stroke-opacity:1"
       transform="scale(-1)" />
    <rect
       style="fill:none;stroke:#000000;stroke-width:0.29727194;stroke-miterlimit:4;stroke-dasharray:none;stroke-opacity:1"
       id="rect968"
       width="23.702728"
       height="16.702728"
       x="-221.55139"
       y="-84.801338"
       transform="scale(-1)" />
    <rect
       style="fill:none;stroke:#000000;stroke-width:0.29727194;stroke-miterlimit:4;stroke-dasharray:none;stroke-opacity:1"
       id="rect970"
       width="23.702728"
       height="16.702728"
       x="-193.55138"
       y="-84.801338"
       transform="scale(-1)" />
    <rect
       y="-84.801338"
       x="-165.55138"
       height="16.702728"
       width="23.702728"
       id="rect972"
       style="fill:none;stroke:#000000;stroke-width:0.29727194;stroke-miterlimit:4;stroke-dasharray:none;stroke-opacity:1"
       transform="scale(-1)" />
    <rect
       y="-63.801323"
       x="-249.55139"
       height="16.702728"
       width="23.702728"
       id="rect974"
       style="fill:none;stroke:#000000;stroke-width:0.29727194;stroke-miterlimit:4;stroke-dasharray:none;stroke-opacity:1"
       transform="scale(-1)" />
    <rect
       style="fill:none;stroke:#000000;stroke-width:0.29727194;stroke-miterlimit:4;stroke-dasharray:none;stroke-opacity:1"
       id="rect976"
       width="23.702728"
       height="16.702728"
       x="-221.55139"
       y="-63.801323"
       transform="scale(-1)" />
    <rect
       style="fill:none;stroke:#000000;stroke-width:0.29727194;stroke-miterlimit:4;stroke-dasharray:none;stroke-opacity:1"
       id="rect978"
       width="23.702728"
       height="16.702728"
       x="-193.55138"
       y="-63.801323"
       transform="scale(-1)" />
    <rect
       y="-63.801323"
       x="-165.55138"
       height="16.702728"
       width="23.702728"
       id="rect980"
       style="fill:none;stroke:#000000;stroke-width:0.29727194;stroke-miterlimit:4;stroke-dasharray:none;stroke-opacity:1"
       transform="scale(-1)" />
    <rect
       style="fill:none;stroke:#000000;stroke-width:0.29727194;stroke-miterlimit:4;stroke-dasharray:none;stroke-opacity:1"
       id="rect982"
       width="23.702728"
       height="16.702728"
       x="-249.55139"
       y="-42.801308"
       transform="scale(-1)" />
    <rect
       y="-42.801308"
       x="-221.55139"
       height="16.702728"
       width="23.702728"
       id="rect984"
       style="fill:none;stroke:#000000;stroke-width:0.29727194;stroke-miterlimit:4;stroke-dasharray:none;stroke-opacity:1"
       transform="scale(-1)" />
    <rect
       y="-42.801308"
       x="-193.55138"
       height="16.702728"
       width="23.702728"
       id="rect986"
       style="fill:none;stroke:#000000;stroke-width:0.29727194;stroke-miterlimit:4;stroke-dasharray:none;stroke-opacity:1"
       transform="scale(-1)" />
    <rect
       style="fill:none;stroke:#000000;stroke-width:0.29727194;stroke-miterlimit:4;stroke-dasharray:none;stroke-opacity:1"
       id="rect988"
       width="23.702728"
       height="16.702728"
       x="-165.55138"
       y="-42.801308"
       transform="scale(-1)" />
    <path
       id="path990"
       style="fill:none;stroke:#000000;stroke-width:0.2958619;stroke-linecap:square;stroke-linejoin:miter;stroke-miterlimit:4;stroke-dasharray:none;stroke-opacity:1;paint-order:normal"
       d="m 143.78556,105.74089 c -1.87645,-1.98996 -1.87645,-1.98996 -1.87645,-1.98996 m 0,-14.653014 c 0,0 0,0 0,14.653014 0,0 0,0 0,0 m 23.64296,1.98996 c -21.77736,0 -21.77736,0 -21.77736,0 m 21.77736,-16.642974 c -23.64296,0 -23.64296,0 -23.64296,0 m 23.64296,0 c 0,0 0,0 0,16.642974 0,0 0,0 0,0"
       inkscape:connector-curvature="0" />
  </g>
</svg>
